<?xml version="1.0" encoding="utf-8"?>
<!-- Generator: Adobe Illustrator 24.0.2, SVG Export Plug-In . SVG Version: 6.00 Build 0)  -->
<svg version="1.1" id="Layer_1" xmlns="http://www.w3.org/2000/svg" xmlns:xlink="http://www.w3.org/1999/xlink" x="0px" y="0px"
	 viewBox="0 0 198.28 60.34" style="enable-background:new 0 0 198.28 60.34;" xml:space="preserve">
<style type="text/css">
	.st0{fill:#CCCCCB;}
	.st1{fill:#010101;}
	.st2{fill:#708A86;}
</style>
<g>
	<path class="st0" d="M17.06,11.76v2.6h0.05c0.02-0.76,0.32-1.3,0.56-1.64c0.64-0.88,1.57-1.2,2.67-1.2c0.22,0,0.42,0.02,0.64,0.05
		v4.39c-0.29-0.07-0.59-0.12-0.88-0.12c-0.81,0-1.45,0.2-1.91,0.88c-0.39,0.59-0.44,1.23-0.44,2.16v5.45h-4.86V11.76H17.06z"/>
	<path class="st0" d="M34.8,24.32h-4.51v-2.06h-0.05c-0.98,2.23-3.14,2.31-3.68,2.31c-0.83,0-1.77-0.2-2.43-0.64
		c-1.37-0.91-1.55-2.33-1.55-3.51v-8.66h4.86v7.43c0,0.49,0,1.05,0.27,1.42c0.17,0.22,0.52,0.42,0.88,0.42s0.74-0.17,0.96-0.44
		c0.34-0.42,0.39-0.96,0.39-1.37v-7.46h4.86V24.32z"/>
	<path class="st0" d="M44.83,15.51c-0.2-0.42-0.52-0.81-0.83-1.01c-0.49-0.29-1.18-0.29-1.47-0.29c-0.34,0-0.88,0.05-1.18,0.29
		c-0.17,0.12-0.27,0.34-0.27,0.56c0,0.42,0.34,0.64,1.18,0.74l2.28,0.29c0.83,0.1,2.53,0.34,3.58,1.47
		c0.56,0.59,0.96,1.47,0.96,2.55c0,1.74-1.03,2.82-1.94,3.39c-1.15,0.74-2.87,1.05-4.64,1.05c-1.23,0-3.24-0.2-4.66-1.45
		c-0.64-0.56-1.2-1.42-1.52-2.36l3.9-0.52c0.15,0.42,0.37,0.71,0.76,0.98c0.64,0.44,1.25,0.49,1.74,0.49c1.28,0,1.64-0.17,1.79-0.32
		c0.12-0.12,0.25-0.34,0.25-0.54c0-0.32-0.22-0.49-0.39-0.56c-0.32-0.15-0.59-0.17-0.88-0.22l-1.74-0.22
		c-0.98-0.12-2.45-0.44-3.39-1.13c-0.81-0.59-1.45-1.62-1.45-2.94c0-0.93,0.34-2.48,2.06-3.46c1.3-0.76,2.63-0.81,3.8-0.81
		c1.37,0,2.82,0.1,4.07,1.01c1.1,0.81,1.55,1.89,1.69,2.28L44.83,15.51z"/>
	<path class="st0" d="M58.22,15.51c-0.2-0.42-0.52-0.81-0.83-1.01c-0.49-0.29-1.18-0.29-1.47-0.29c-0.34,0-0.88,0.05-1.18,0.29
		c-0.17,0.12-0.27,0.34-0.27,0.56c0,0.42,0.34,0.64,1.18,0.74l2.28,0.29c0.83,0.1,2.53,0.34,3.58,1.47
		c0.56,0.59,0.96,1.47,0.96,2.55c0,1.74-1.03,2.82-1.94,3.39c-1.15,0.74-2.87,1.05-4.64,1.05c-1.23,0-3.24-0.2-4.66-1.45
		c-0.64-0.56-1.2-1.42-1.52-2.36l3.9-0.52c0.15,0.42,0.37,0.71,0.76,0.98c0.64,0.44,1.25,0.49,1.74,0.49c1.28,0,1.64-0.17,1.79-0.32
		c0.12-0.12,0.25-0.34,0.25-0.54c0-0.32-0.22-0.49-0.39-0.56c-0.32-0.15-0.59-0.17-0.88-0.22l-1.74-0.22
		c-0.98-0.12-2.45-0.44-3.39-1.13c-0.81-0.59-1.45-1.62-1.45-2.94c0-0.93,0.34-2.48,2.06-3.46c1.3-0.76,2.63-0.81,3.8-0.81
		c1.37,0,2.82,0.1,4.07,1.01c1.1,0.81,1.55,1.89,1.69,2.28L58.22,15.51z"/>
	<path class="st0" d="M69.09,10.58h-4.86V7.24h4.86V10.58z M69.09,24.32h-4.86V11.76h4.86V24.32z"/>
	<path class="st0" d="M71.47,15.44c0.39-1.6,1.37-2.48,2.06-2.92c1.37-0.91,3.12-1.01,4.51-1.01c2.09,0,4.42,0.25,5.45,2.18
		c0.49,0.93,0.49,1.96,0.49,2.97v4.91c0,0.71,0,1.5,0.37,2.75h-4.61c-0.07-0.32-0.17-0.86-0.17-1.74c-0.49,0.76-1.59,1.99-4.1,1.99
		c-3.26,0-4.42-2.01-4.42-3.66c0-1.1,0.47-2.26,1.42-3.02c1.45-1.15,4.1-1.52,5.94-1.67l0.91-0.07v-0.2c0-0.25,0-0.76-0.29-1.08
		c-0.17-0.2-0.54-0.37-1.2-0.37c-1.35,0-1.79,0.71-1.89,1.35L71.47,15.44z M78.56,18.55c-1.18,0.2-1.69,0.52-1.86,0.64
		c-0.52,0.37-0.69,0.88-0.69,1.28c0,0.64,0.47,1.1,1.35,1.1c1.84,0,1.96-1.52,1.96-2.43v-0.71L78.56,18.55z"/>
	<path class="st0" d="M86.58,24.32V11.76h4.51v1.77h0.05c1.08-1.84,2.82-2.01,3.63-2.01c0.98,0,1.99,0.25,2.72,0.79
		c1.13,0.86,1.3,2.06,1.3,2.97v9.05h-4.86V16.2c0-0.49,0-0.93-0.39-1.3c-0.22-0.2-0.44-0.25-0.69-0.25c-0.44,0-0.79,0.17-1.01,0.42
		c-0.39,0.44-0.42,1.03-0.42,1.55v7.7H86.58z"/>
</g>
<g>
	<path class="st1" d="M20.7,29.09c-0.1-0.69-0.36-1.42-0.67-1.89c-0.34-0.49-1.03-1.1-2.23-1.1c-1.06,0-1.83,0.52-2.36,1.4
		c-0.67,1.1-0.79,2.53-0.79,3.53c0,2.36,0.65,3.39,0.79,3.58c0.41,0.61,1.13,1.25,2.33,1.25c0.91,0,1.59-0.32,2.14-1.03
		c0.43-0.56,0.7-1.33,0.79-2.04l1.73,0.32c-0.17,1.2-0.7,2.31-1.39,3.04c-0.87,0.91-1.99,1.33-3.32,1.33
		c-1.54,0-2.64-0.56-3.36-1.23c-1.2-1.13-1.83-3.14-1.83-5.25c0-1.67,0.36-3.19,1.27-4.49c0.84-1.18,2.07-2.04,4.04-2.04
		c1.35,0,2.48,0.42,3.34,1.42c0.7,0.81,1.11,1.96,1.25,2.87L20.7,29.09z"/>
	<path class="st1" d="M26.57,27.07c0.7-1.52,2.04-2.6,3.97-2.6c1.51,0,2.43,0.61,2.88,1.15c0.84,0.96,0.94,2.26,0.94,3.39v8.22
		h-1.83v-7.75c0-0.93,0-1.89-0.5-2.58c-0.26-0.37-0.82-0.81-1.83-0.81c-1.37,0-2.21,0.76-2.64,1.3c-0.77,0.96-0.99,2.13-0.99,3.44
		v6.4h-1.83V20.4h1.83V27.07z"/>
	<path class="st1" d="M39.81,22.56h-2.02V20.4h2.02V22.56z M39.71,37.23h-1.83V24.72h1.83V37.23z"/>
	<path class="st1" d="M45.07,37.23h-1.83V20.4h1.83V37.23z"/>
	<path class="st1" d="M58.01,20.4v16.83h-1.68v-2.11h-0.05c-0.12,0.34-0.36,0.79-0.77,1.2c-0.67,0.69-1.63,1.15-2.88,1.15
		c-1.63,0-2.81-0.71-3.68-1.86c-0.67-0.91-1.32-2.36-1.32-4.54c0-2.33,0.65-4.1,1.63-5.15c0.84-0.91,1.95-1.45,3.39-1.45
		c0.96,0,1.83,0.25,2.6,0.86c0.38,0.32,0.7,0.69,0.94,1.06V20.4H58.01z M56.18,29.53c0-0.88-0.36-1.79-0.87-2.38
		c-0.48-0.56-1.27-1.06-2.36-1.06c-0.96,0-1.83,0.37-2.48,1.4c-0.53,0.86-0.75,2.04-0.75,3.44c0,1.79,0.36,2.82,0.72,3.46
		c0.53,0.93,1.3,1.47,2.4,1.47c1.08,0,1.97-0.54,2.5-1.23c0.46-0.61,0.82-1.62,0.82-2.48V29.53z"/>
	<path class="st1" d="M63.22,24.72v2.97h0.05c0.22-0.96,0.75-1.89,1.37-2.43c0.53-0.47,1.3-0.81,2.16-0.81c0.24,0,0.46,0,0.7,0.05
		v1.82c-0.12,0-0.26,0-0.38,0c-0.7,0.02-1.87,0.15-2.86,1.42c-0.7,0.91-0.89,1.84-0.89,3.21v6.28h-1.83V24.72H63.22z"/>
	<path class="st1" d="M79.16,33.82c-0.34,1.08-0.96,1.99-1.99,2.72c-0.96,0.66-1.97,0.93-3.15,0.93c-1.73,0-3.1-0.59-4.16-1.82
		c-1.08-1.25-1.49-2.85-1.49-4.59c0-3.34,1.83-6.6,5.7-6.6c4.57,0,5.31,4.32,5.31,6.33v0.44h-8.89c-0.02,0.83,0.12,1.72,0.41,2.43
		c0.6,1.5,1.71,2.18,3.2,2.18c1.32,0,2.11-0.59,2.55-1.08c0.34-0.37,0.6-0.88,0.75-1.32L79.16,33.82z M77.26,29.72
		c-0.02-0.76-0.22-1.67-0.58-2.28C76.3,26.8,75.53,26,74.09,26c-1.2,0-2.11,0.59-2.67,1.28c-0.5,0.66-0.82,1.57-0.84,2.45H77.26z"/>
	<path class="st1" d="M81.81,37.23V24.77h1.68v2.31h0.05c0.72-1.59,2.16-2.6,4.06-2.6c1.51,0,2.4,0.61,2.88,1.15
		c0.84,0.96,0.94,2.26,0.94,3.39v8.22h-1.83v-7.75c0-0.93,0-1.89-0.5-2.58c-0.26-0.34-0.82-0.81-1.87-0.81
		c-0.89,0-1.68,0.34-2.28,0.91c-1.23,1.15-1.3,2.77-1.3,3.63v6.6H81.81z"/>
</g>
<g>
	<path class="st2" d="M20.28,42.62c-0.2-0.42-0.52-0.81-0.83-1.01c-0.49-0.29-1.18-0.29-1.47-0.29c-0.34,0-0.88,0.05-1.18,0.29
		c-0.17,0.12-0.27,0.34-0.27,0.56c0,0.42,0.34,0.64,1.18,0.74l2.28,0.29c0.83,0.1,2.53,0.34,3.58,1.47
		c0.56,0.59,0.96,1.47,0.96,2.55c0,1.74-1.03,2.82-1.94,3.39c-1.15,0.74-2.87,1.05-4.64,1.05c-1.23,0-3.24-0.2-4.66-1.45
		c-0.64-0.56-1.2-1.42-1.52-2.36l3.9-0.52c0.15,0.42,0.37,0.71,0.76,0.98c0.64,0.44,1.25,0.49,1.74,0.49c1.28,0,1.64-0.17,1.79-0.32
		c0.12-0.12,0.25-0.34,0.25-0.54c0-0.32-0.22-0.49-0.39-0.56c-0.32-0.15-0.59-0.17-0.88-0.22l-1.74-0.22
		c-0.98-0.12-2.45-0.44-3.39-1.13c-0.81-0.59-1.45-1.62-1.45-2.94c0-0.93,0.34-2.48,2.06-3.46c1.3-0.76,2.63-0.81,3.8-0.81
		c1.37,0,2.82,0.1,4.07,1.01c1.1,0.81,1.55,1.89,1.69,2.28L20.28,42.62z"/>
	<path class="st2" d="M31.17,38.87h2.45v3.29h-2.45v4.54c0,0.34,0,0.83,0.25,1.13c0.25,0.29,0.66,0.32,0.88,0.32
		c0.29,0,0.71-0.02,1.33-0.25v3.43c-1.5,0.29-2.5,0.34-3.09,0.34c-1.1,0-2.4-0.15-3.31-1.18c-0.91-1.05-0.91-2.31-0.91-3.58v-4.76
		h-1.82v-3.29h2.04l0.37-3.97l4.27-0.15V38.87z"/>
	<path class="st2" d="M47.14,51.43h-4.51v-2.06h-0.05c-0.98,2.23-3.14,2.31-3.68,2.31c-0.83,0-1.77-0.2-2.43-0.64
		c-1.37-0.91-1.55-2.33-1.55-3.51v-8.66h4.86v7.43c0,0.49,0,1.05,0.27,1.42c0.17,0.22,0.52,0.42,0.88,0.42
		c0.37,0,0.74-0.17,0.96-0.44c0.34-0.42,0.39-0.96,0.39-1.37v-7.46h4.86V51.43z"/>
	<path class="st2" d="M61.63,34.6v16.83h-4.51v-1.62h-0.05c-0.25,0.51-0.64,0.96-1.1,1.25c-0.59,0.39-1.52,0.61-2.36,0.61
		c-1.28,0-2.48-0.52-3.44-1.79c-1.06-1.4-1.4-3.26-1.4-4.86c0-2.36,0.69-3.83,1.37-4.71c1.01-1.28,2.16-1.69,3.63-1.69
		c0.61,0,1.33,0.07,1.99,0.44c0.39,0.22,0.76,0.56,1.01,0.83v-5.3H61.63z M56.78,43.65c0-0.81-0.17-1.23-0.34-1.45
		c-0.29-0.37-0.69-0.44-0.98-0.44c-0.64,0-1.08,0.32-1.37,0.93c-0.15,0.29-0.34,0.88-0.34,2.33c0,0.81,0.05,1.94,0.32,2.6
		c0.27,0.66,0.69,1.06,1.35,1.06c0.59,0,0.93-0.34,1.1-0.66c0.32-0.51,0.27-1.1,0.27-1.52V43.65z"/>
	<path class="st2" d="M68.77,37.69h-4.86v-3.34h4.86V37.69z M68.77,51.43h-4.86V38.87h4.86V51.43z"/>
	<path class="st2" d="M81.63,40.31c1.33,1.23,2.04,3.04,2.04,4.83s-0.71,3.61-2.04,4.83c-0.98,0.91-2.45,1.69-4.59,1.69
		c-2.13,0-3.61-0.79-4.59-1.69c-1.33-1.23-2.04-3.04-2.04-4.83s0.71-3.61,2.04-4.83c0.98-0.91,2.45-1.69,4.59-1.69
		C79.17,38.62,80.64,39.41,81.63,40.31z M78.36,47.77c0.29-0.59,0.34-1.35,0.34-2.63c0-1.28-0.05-2.04-0.34-2.63
		c-0.29-0.61-0.74-0.91-1.33-0.91s-1.03,0.29-1.32,0.91c-0.29,0.59-0.34,1.35-0.34,2.63c0,1.08,0.02,1.94,0.34,2.63
		c0.27,0.56,0.64,0.91,1.32,0.91C77.63,48.68,78.07,48.41,78.36,47.77z"/>
</g>
<g>
	<path class="st1" d="M89.49,48.14c0.28-0.26,0.74-0.52,1.38-0.52s1.1,0.26,1.38,0.52c0.41,0.39,0.69,1.04,0.69,1.86
		s-0.29,1.48-0.69,1.86c-0.28,0.26-0.74,0.52-1.38,0.52s-1.1-0.26-1.38-0.52c-0.4-0.39-0.69-1.04-0.69-1.86S89.09,48.52,89.49,48.14
		z M91.71,51.47c0.42-0.42,0.44-1.2,0.44-1.47s-0.02-1.04-0.44-1.47c-0.2-0.2-0.49-0.32-0.84-0.32s-0.64,0.13-0.84,0.32
		c-0.42,0.42-0.44,1.2-0.44,1.47s0.02,1.04,0.44,1.47c0.2,0.2,0.49,0.32,0.84,0.32S91.51,51.66,91.71,51.47z"/>
	<path class="st1" d="M96.22,46.65c-0.26-0.05-0.45-0.06-0.59-0.06c-0.17,0-0.4,0.02-0.57,0.19c-0.17,0.18-0.2,0.44-0.2,0.62v0.31
		h1.08v0.56h-1.08v4.03h-0.68v-4.03h-0.81V47.7h0.81v-0.13c0-0.4,0.04-0.93,0.41-1.26c0.29-0.25,0.69-0.29,0.95-0.29
		c0.29,0,0.52,0.04,0.67,0.06V46.65z"/>
	<path class="st1" d="M99.5,52.3h-0.68v-6.18h0.68V52.3z"/>
	<path class="st1" d="M100.72,48.86c0.2-0.98,0.95-1.25,1.94-1.25c0.31,0,0.9,0.01,1.31,0.33c0.5,0.4,0.5,1.03,0.5,1.62v1.76
		c0,0.25,0.03,0.56,0.12,0.96h-0.72c-0.05-0.33-0.07-0.63-0.08-0.86c-0.13,0.26-0.52,0.95-1.6,0.95c-0.58,0-0.95-0.2-1.18-0.41
		c-0.2-0.18-0.41-0.5-0.41-0.97c0-0.62,0.35-0.98,0.62-1.16c0.56-0.38,1.28-0.39,1.98-0.39h0.59v-0.19c0-0.24-0.02-0.55-0.18-0.76
		c-0.23-0.32-0.63-0.33-0.95-0.33c-0.38,0-1.17,0.05-1.28,0.8L100.72,48.86z M103.2,50.02c-0.72,0-1.13,0.09-1.39,0.23
		c-0.38,0.2-0.47,0.53-0.47,0.76c0,0.18,0.07,0.44,0.33,0.61c0.13,0.09,0.34,0.17,0.66,0.17c0.45,0,0.85-0.22,1.09-0.51
		c0.23-0.29,0.36-0.71,0.36-1.04v-0.23H103.2z"/>
	<path class="st1" d="M105.86,52.3v-4.57h0.63v0.85h0.02c0.27-0.58,0.81-0.95,1.52-0.95c0.57,0,0.9,0.22,1.08,0.42
		c0.32,0.35,0.35,0.83,0.35,1.24v3.02h-0.68v-2.84c0-0.34,0-0.69-0.19-0.95c-0.1-0.13-0.31-0.3-0.7-0.3c-0.33,0-0.63,0.13-0.86,0.33
		c-0.46,0.42-0.49,1.02-0.49,1.33v2.42H105.86z"/>
	<path class="st1" d="M114.64,47.58h-0.13c-0.05,0-0.12-0.01-0.17-0.01c-0.17,0-0.32,0.04-0.44,0.21c-0.06,0.09-0.12,0.25-0.14,0.33
		c0.43,0.43,0.44,0.95,0.44,1.13c0,0.43-0.2,0.79-0.44,1.04c-0.29,0.29-0.71,0.47-1.19,0.47c-0.12,0-0.24-0.02-0.36-0.04
		c-0.1-0.02-0.21-0.04-0.31-0.04c-0.13,0-0.29,0.03-0.39,0.1c-0.11,0.08-0.17,0.2-0.17,0.32c0,0.17,0.09,0.4,0.6,0.42l0.95,0.04
		c0.54,0.03,0.88,0.04,1.21,0.16c0.49,0.19,0.7,0.6,0.7,0.99c0,0.34-0.15,0.78-0.68,1.05c-0.5,0.25-1.25,0.27-1.58,0.27
		c-1.35,0-2.12-0.41-2.12-1.19c0-0.48,0.29-0.8,0.69-0.93c-0.12-0.06-0.44-0.28-0.44-0.72c0-0.33,0.19-0.69,0.63-0.82v-0.02
		c-0.58-0.42-0.59-1.03-0.59-1.19c0-0.42,0.19-0.82,0.47-1.09c0.21-0.2,0.61-0.46,1.29-0.46c0.46,0,0.78,0.13,0.93,0.19
		c0.04-0.36,0.23-0.64,0.58-0.75c0.17-0.05,0.28-0.05,0.44-0.05c0.05,0,0.11,0,0.16,0.01l0.05,0.01V47.58z M111.62,52.11
		c-0.23,0.1-0.49,0.28-0.49,0.59c0,0.3,0.22,0.76,1.43,0.76c0.2,0,0.7-0.03,0.99-0.12c0.46-0.14,0.56-0.43,0.56-0.58
		c0-0.54-0.67-0.56-1.4-0.59L111.62,52.11z M113.46,49.16c0-0.14-0.02-0.46-0.27-0.71c-0.19-0.2-0.44-0.28-0.71-0.28
		c-0.14,0-0.34,0.02-0.55,0.13c-0.32,0.19-0.48,0.54-0.48,0.86c0,0.27,0.12,0.58,0.3,0.76c0.17,0.16,0.45,0.25,0.72,0.25
		C113.36,50.18,113.46,49.41,113.46,49.16z"/>
	<path class="st1" d="M119.04,52.3h-0.63v-0.91h-0.02c-0.25,0.67-0.82,1-1.41,1c-0.54,0-0.88-0.23-1.08-0.45
		c-0.38-0.43-0.42-1.05-0.42-1.38V47.7h0.68v2.85c0,0.18,0.01,0.67,0.23,0.95c0.15,0.19,0.43,0.29,0.69,0.29
		c0.66,0,1.27-0.55,1.27-1.65V47.7h0.68V52.3z"/>
	<path class="st1" d="M120.26,48.86c0.2-0.98,0.95-1.25,1.94-1.25c0.31,0,0.9,0.01,1.31,0.33c0.5,0.4,0.5,1.03,0.5,1.62v1.76
		c0,0.25,0.03,0.56,0.12,0.96h-0.72c-0.05-0.33-0.07-0.63-0.08-0.86c-0.13,0.26-0.52,0.95-1.6,0.95c-0.58,0-0.95-0.2-1.18-0.41
		c-0.2-0.18-0.42-0.5-0.42-0.97c0-0.62,0.35-0.98,0.62-1.16c0.56-0.38,1.28-0.39,1.98-0.39h0.59v-0.19c0-0.24-0.02-0.55-0.18-0.76
		c-0.23-0.32-0.63-0.33-0.95-0.33c-0.38,0-1.17,0.05-1.28,0.8L120.26,48.86z M122.74,50.02c-0.72,0-1.13,0.09-1.39,0.23
		c-0.38,0.2-0.47,0.53-0.47,0.76c0,0.18,0.07,0.44,0.33,0.61c0.13,0.09,0.34,0.17,0.66,0.17c0.45,0,0.85-0.22,1.09-0.51
		c0.23-0.29,0.36-0.71,0.36-1.04v-0.23H122.74z"/>
	<path class="st1" d="M129.12,47.58H129c-0.05,0-0.12-0.01-0.17-0.01c-0.17,0-0.32,0.04-0.44,0.21c-0.06,0.09-0.12,0.25-0.14,0.33
		c0.43,0.43,0.44,0.95,0.44,1.13c0,0.43-0.2,0.79-0.44,1.04c-0.29,0.29-0.71,0.47-1.19,0.47c-0.12,0-0.24-0.02-0.36-0.04
		c-0.1-0.02-0.21-0.04-0.31-0.04c-0.13,0-0.29,0.03-0.39,0.1c-0.11,0.08-0.17,0.2-0.17,0.32c0,0.17,0.09,0.4,0.6,0.42l0.95,0.04
		c0.54,0.03,0.88,0.04,1.21,0.16c0.49,0.19,0.7,0.6,0.7,0.99c0,0.34-0.15,0.78-0.68,1.05c-0.5,0.25-1.25,0.27-1.58,0.27
		c-1.35,0-2.13-0.41-2.13-1.19c0-0.48,0.29-0.8,0.69-0.93c-0.12-0.06-0.44-0.28-0.44-0.72c0-0.33,0.19-0.69,0.63-0.82v-0.02
		c-0.59-0.42-0.59-1.03-0.59-1.19c0-0.42,0.19-0.82,0.47-1.09c0.21-0.2,0.61-0.46,1.29-0.46c0.46,0,0.78,0.13,0.93,0.19
		c0.04-0.36,0.23-0.64,0.59-0.75c0.17-0.05,0.28-0.05,0.44-0.05c0.05,0,0.11,0,0.16,0.01l0.05,0.01V47.58z M126.1,52.11
		c-0.23,0.1-0.49,0.28-0.49,0.59c0,0.3,0.22,0.76,1.43,0.76c0.2,0,0.7-0.03,0.99-0.12c0.46-0.14,0.56-0.43,0.56-0.58
		c0-0.54-0.67-0.56-1.4-0.59L126.1,52.11z M127.94,49.16c0-0.14-0.02-0.46-0.27-0.71c-0.19-0.2-0.44-0.28-0.71-0.28
		c-0.14,0-0.34,0.02-0.55,0.13c-0.32,0.19-0.48,0.54-0.48,0.86c0,0.27,0.12,0.58,0.3,0.76c0.17,0.16,0.45,0.25,0.72,0.25
		C127.84,50.18,127.94,49.41,127.94,49.16z"/>
	<path class="st1" d="M133.63,51.04c-0.13,0.4-0.36,0.73-0.75,1c-0.36,0.24-0.74,0.34-1.18,0.34c-0.65,0-1.16-0.22-1.56-0.67
		c-0.41-0.46-0.56-1.04-0.56-1.68c0-1.22,0.68-2.42,2.13-2.42c1.71,0,1.99,1.58,1.99,2.32v0.16h-3.33
		c-0.01,0.31,0.04,0.63,0.15,0.89c0.22,0.55,0.64,0.8,1.2,0.8c0.5,0,0.79-0.22,0.95-0.4c0.13-0.13,0.23-0.32,0.28-0.49L133.63,51.04
		z M132.92,49.54c-0.01-0.28-0.08-0.61-0.22-0.84c-0.14-0.23-0.43-0.53-0.97-0.53c-0.45,0-0.79,0.22-1,0.47
		c-0.19,0.24-0.31,0.58-0.32,0.9H132.92z"/>
	<path class="st1" d="M135.68,52.18l-0.72,1.21h-0.34l0.53-1.09h-0.37V51.4h0.9V52.18z"/>
	<path class="st1" d="M138.93,48.86c0.2-0.98,0.95-1.25,1.94-1.25c0.31,0,0.9,0.01,1.31,0.33c0.5,0.4,0.5,1.03,0.5,1.62v1.76
		c0,0.25,0.03,0.56,0.12,0.96h-0.72c-0.05-0.33-0.07-0.63-0.08-0.86c-0.13,0.26-0.52,0.95-1.6,0.95c-0.59,0-0.95-0.2-1.18-0.41
		c-0.2-0.18-0.41-0.5-0.41-0.97c0-0.62,0.35-0.98,0.62-1.16c0.56-0.38,1.28-0.39,1.98-0.39H142v-0.19c0-0.24-0.02-0.55-0.18-0.76
		c-0.23-0.32-0.63-0.33-0.95-0.33c-0.38,0-1.17,0.05-1.28,0.8L138.93,48.86z M141.41,50.02c-0.72,0-1.13,0.09-1.39,0.23
		c-0.38,0.2-0.47,0.53-0.47,0.76c0,0.18,0.07,0.44,0.33,0.61c0.13,0.09,0.34,0.17,0.66,0.17c0.45,0,0.85-0.22,1.09-0.51
		c0.23-0.29,0.36-0.71,0.36-1.04v-0.23H141.41z"/>
	<path class="st1" d="M144.7,47.7v1.09h0.02c0.08-0.35,0.28-0.69,0.51-0.89c0.2-0.17,0.49-0.3,0.81-0.3c0.09,0,0.17,0,0.26,0.02
		v0.67c-0.04,0-0.1,0-0.14,0c-0.26,0.01-0.7,0.05-1.07,0.52c-0.26,0.33-0.33,0.68-0.33,1.18v2.3h-0.68V47.7H144.7z"/>
	<path class="st1" d="M147.93,47.7h1.04v0.56h-1.04v2.71c0,0.18,0.01,0.46,0.22,0.65c0.1,0.09,0.27,0.17,0.56,0.17
		c0.16,0,0.35-0.03,0.51-0.05v0.56c-0.21,0.04-0.43,0.05-0.66,0.05c-0.29,0-0.72-0.04-1.01-0.32c-0.29-0.3-0.31-0.72-0.31-0.95
		v-2.81h-0.8V47.7h0.8v-1.15l0.68-0.07V47.7z"/>
	<path class="st1" d="M157.1,49.05c-0.29,1.27-0.82,1.92-1.12,2.24c0.24,0.33,0.43,0.35,0.72,0.35c0.17,0,0.31-0.01,0.5-0.04v0.65
		c-0.39,0.04-0.4,0.06-0.68,0.06c-0.51,0-0.68-0.23-0.91-0.44l-0.11-0.1c-0.63,0.55-1.28,0.61-1.67,0.61
		c-1.39,0-2.08-0.94-2.08-1.82c0-0.38,0.13-1.36,1.56-1.85l-0.13-0.18c-0.28-0.41-0.51-0.79-0.51-1.2c0-0.62,0.43-1.3,1.49-1.3
		c1.14,0,1.63,0.65,1.63,1.3c0,0.86-0.7,1.32-1.51,1.6l1.27,1.9c0.24-0.27,0.69-0.86,0.89-1.92L157.1,49.05z M153.65,49.21
		c-0.17,0.04-0.35,0.13-0.55,0.27c-0.31,0.23-0.51,0.54-0.51,0.99c0,0.64,0.46,1.25,1.37,1.25c0.58,0,0.95-0.26,1.13-0.41
		L153.65,49.21z M154.17,48.38c0.24-0.14,0.5-0.23,0.68-0.48c0.09-0.13,0.16-0.3,0.16-0.5c0-0.42-0.35-0.7-0.84-0.7
		c-0.42,0-0.73,0.25-0.73,0.66c0,0.37,0.23,0.66,0.42,0.95l0.12,0.18L154.17,48.38z"/>
	<path class="st1" d="M163.08,49.31c-0.04-0.25-0.13-0.52-0.25-0.69c-0.13-0.18-0.39-0.41-0.84-0.41c-0.4,0-0.68,0.19-0.88,0.51
		c-0.25,0.41-0.3,0.93-0.3,1.3c0,0.86,0.24,1.24,0.3,1.31c0.15,0.23,0.42,0.46,0.87,0.46c0.34,0,0.59-0.12,0.8-0.38
		c0.16-0.21,0.26-0.49,0.3-0.75l0.65,0.12c-0.06,0.44-0.26,0.85-0.52,1.12c-0.32,0.33-0.75,0.49-1.24,0.49
		c-0.58,0-0.99-0.21-1.26-0.45c-0.45-0.41-0.68-1.15-0.68-1.93c0-0.61,0.13-1.17,0.48-1.65c0.31-0.43,0.77-0.75,1.51-0.75
		c0.5,0,0.93,0.15,1.25,0.52c0.26,0.3,0.41,0.72,0.47,1.05L163.08,49.31z"/>
	<path class="st1" d="M168.29,52.3h-0.63v-0.91h-0.02c-0.25,0.67-0.82,1-1.41,1c-0.54,0-0.88-0.23-1.08-0.45
		c-0.38-0.43-0.42-1.05-0.42-1.38V47.7h0.68v2.85c0,0.18,0.01,0.67,0.23,0.95c0.15,0.19,0.43,0.29,0.69,0.29
		c0.66,0,1.27-0.55,1.27-1.65V47.7h0.68V52.3z"/>
	<path class="st1" d="M170.43,52.3h-0.68v-6.18h0.68V52.3z"/>
	<path class="st1" d="M172.69,47.7h1.04v0.56h-1.04v2.71c0,0.18,0.01,0.46,0.22,0.65c0.1,0.09,0.27,0.17,0.56,0.17
		c0.16,0,0.35-0.03,0.51-0.05v0.56c-0.21,0.04-0.43,0.05-0.66,0.05c-0.29,0-0.72-0.04-1.01-0.32c-0.29-0.3-0.31-0.72-0.31-0.95
		v-2.81h-0.8V47.7h0.8v-1.15l0.68-0.07V47.7z"/>
	<path class="st1" d="M178.3,52.3h-0.63v-0.91h-0.02c-0.25,0.67-0.82,1-1.41,1c-0.54,0-0.88-0.23-1.08-0.45
		c-0.38-0.43-0.42-1.05-0.42-1.38V47.7h0.68v2.85c0,0.18,0.01,0.67,0.23,0.95c0.15,0.19,0.43,0.29,0.69,0.29
		c0.66,0,1.27-0.55,1.27-1.65V47.7h0.68V52.3z"/>
	<path class="st1" d="M180.38,47.7v1.09h0.02c0.08-0.35,0.28-0.69,0.51-0.89c0.2-0.17,0.49-0.3,0.81-0.3c0.09,0,0.17,0,0.26,0.02
		v0.67c-0.04,0-0.1,0-0.14,0c-0.26,0.01-0.7,0.05-1.07,0.52c-0.26,0.33-0.33,0.68-0.33,1.18v2.3h-0.68V47.7H180.38z"/>
</g>
<g>
	<path class="st1" d="M186.41,51.04c-0.13,0.4-0.36,0.73-0.75,1c-0.36,0.24-0.74,0.34-1.18,0.34c-0.65,0-1.16-0.22-1.56-0.67
		c-0.41-0.46-0.56-1.04-0.56-1.68c0-1.22,0.68-2.42,2.13-2.42c1.71,0,1.99,1.58,1.99,2.32v0.16h-3.33
		c-0.01,0.31,0.04,0.63,0.15,0.89c0.22,0.55,0.64,0.8,1.2,0.8c0.5,0,0.79-0.22,0.95-0.4c0.13-0.13,0.23-0.32,0.28-0.49L186.41,51.04
		z M185.69,49.54c-0.01-0.28-0.08-0.61-0.22-0.84c-0.14-0.23-0.43-0.53-0.97-0.53c-0.45,0-0.79,0.22-1,0.47
		c-0.19,0.24-0.31,0.58-0.32,0.9H185.69z"/>
</g>
</svg>
